<?xml version="1.0" encoding="UTF-8" standalone="no"?>
<!-- Created with Inkscape (http://www.inkscape.org/) -->

<svg
   width="19.037575mm"
   height="15.00001mm"
   viewBox="0 0 19.037575 15.000011"
   version="1.1"
   id="svg5"
   inkscape:version="1.1 (c68e22c387, 2021-05-23)"
   sodipodi:docname="icon-grey.svg"
   xmlns:inkscape="http://www.inkscape.org/namespaces/inkscape"
   xmlns:sodipodi="http://sodipodi.sourceforge.net/DTD/sodipodi-0.dtd"
   xmlns="http://www.w3.org/2000/svg"
   xmlns:svg="http://www.w3.org/2000/svg">
  <sodipodi:namedview
     id="namedview7"
     pagecolor="#ffffff"
     bordercolor="#666666"
     borderopacity="1.0"
     inkscape:pageshadow="2"
     inkscape:pageopacity="0.0"
     inkscape:pagecheckerboard="0"
     inkscape:document-units="mm"
     showgrid="false"
     fit-margin-top="0"
     fit-margin-left="0"
     fit-margin-right="0"
     fit-margin-bottom="0"
     inkscape:zoom="10.24"
     inkscape:cx="33.938419"
     inkscape:cy="30.92541"
     inkscape:window-width="1920"
     inkscape:window-height="1017"
     inkscape:window-x="1925"
     inkscape:window-y="1072"
     inkscape:window-maximized="1"
     inkscape:current-layer="g7665" />
  <defs
     id="defs2">
    <style
       id="style929">.cls-1{fill:url(#Безымянный_градиент_115);}.cls-2{fill:url(#Безымянный_градиент_39);}</style>
    <linearGradient
       gradientUnits="userSpaceOnUse"
       id="Безымянный_градиент_115"
       x1="24.469999"
       x2="6.7199998"
       y1="20.719999"
       y2="2.97"
       gradientTransform="matrix(0.54245159,0,0,0.54245159,106.98339,103.20894)">
      <stop
         offset="0"
         stop-color="#0179ee"
         id="stop931" />
      <stop
         offset="1"
         stop-color="#00cdfb"
         id="stop933" />
    </linearGradient>
    <linearGradient
       gradientUnits="userSpaceOnUse"
       id="Безымянный_градиент_39"
       x1="23.26"
       x2="9"
       y1="19.620001"
       y2="5.3600001"
       gradientTransform="matrix(0.62743155,0,0,0.62743155,115.93283,100.88379)">
      <stop
         offset="0"
         stop-color="#7fbbf6"
         id="stop936" />
      <stop
         offset="1"
         stop-color="#d0fdff"
         id="stop938" />
    </linearGradient>
    <filter
       style="color-interpolation-filters:sRGB;"
       inkscape:label="Color Shift"
       id="filter11205"
       x="0"
       y="0"
       width="1"
       height="1">
      <feColorMatrix
         type="hueRotate"
         values="330"
         result="color1"
         id="feColorMatrix11201" />
      <feColorMatrix
         type="saturate"
         values="0"
         result="color2"
         id="feColorMatrix11203" />
    </filter>
    <filter
       style="color-interpolation-filters:sRGB;"
       inkscape:label="Color Shift"
       id="filter11211"
       x="0"
       y="0"
       width="1"
       height="1">
      <feColorMatrix
         type="hueRotate"
         values="330"
         result="color1"
         id="feColorMatrix11207" />
      <feColorMatrix
         type="saturate"
         values="0"
         result="color2"
         id="feColorMatrix11209" />
    </filter>
    <filter
       style="color-interpolation-filters:sRGB;"
       inkscape:label="Color Shift"
       id="filter11217"
       x="0"
       y="0"
       width="1"
       height="1">
      <feColorMatrix
         type="hueRotate"
         values="330"
         result="color1"
         id="feColorMatrix11213" />
      <feColorMatrix
         type="saturate"
         values="0"
         result="color2"
         id="feColorMatrix11215" />
    </filter>
    <filter
       style="color-interpolation-filters:sRGB;"
       inkscape:label="Color Shift"
       id="filter11223"
       x="0"
       y="0"
       width="1"
       height="1">
      <feColorMatrix
         type="hueRotate"
         values="330"
         result="color1"
         id="feColorMatrix11219" />
      <feColorMatrix
         type="saturate"
         values="0"
         result="color2"
         id="feColorMatrix11221" />
    </filter>
    <filter
       style="color-interpolation-filters:sRGB;"
       inkscape:label="Color Shift"
       id="filter11229"
       x="0"
       y="0"
       width="1"
       height="1">
      <feColorMatrix
         type="hueRotate"
         values="330"
         result="color1"
         id="feColorMatrix11225" />
      <feColorMatrix
         type="saturate"
         values="0"
         result="color2"
         id="feColorMatrix11227" />
    </filter>
    <filter
       style="color-interpolation-filters:sRGB;"
       inkscape:label="Color Shift"
       id="filter11235"
       x="0"
       y="0"
       width="1"
       height="1">
      <feColorMatrix
         type="hueRotate"
         values="330"
         result="color1"
         id="feColorMatrix11231" />
      <feColorMatrix
         type="saturate"
         values="0"
         result="color2"
         id="feColorMatrix11233" />
    </filter>
    <filter
       style="color-interpolation-filters:sRGB;"
       inkscape:label="Color Shift"
       id="filter11241"
       x="0"
       y="0"
       width="1"
       height="1">
      <feColorMatrix
         type="hueRotate"
         values="330"
         result="color1"
         id="feColorMatrix11237" />
      <feColorMatrix
         type="saturate"
         values="0"
         result="color2"
         id="feColorMatrix11239" />
    </filter>
    <filter
       style="color-interpolation-filters:sRGB;"
       inkscape:label="Color Shift"
       id="filter11247"
       x="0"
       y="0"
       width="1"
       height="1">
      <feColorMatrix
         type="hueRotate"
         values="330"
         result="color1"
         id="feColorMatrix11243" />
      <feColorMatrix
         type="saturate"
         values="0"
         result="color2"
         id="feColorMatrix11245" />
    </filter>
    <filter
       style="color-interpolation-filters:sRGB;"
       inkscape:label="Color Shift"
       id="filter11253"
       x="0"
       y="0"
       width="1"
       height="1">
      <feColorMatrix
         type="hueRotate"
         values="330"
         result="color1"
         id="feColorMatrix11249" />
      <feColorMatrix
         type="saturate"
         values="0"
         result="color2"
         id="feColorMatrix11251" />
    </filter>
    <filter
       style="color-interpolation-filters:sRGB;"
       inkscape:label="Color Shift"
       id="filter11259"
       x="0"
       y="0"
       width="1"
       height="1">
      <feColorMatrix
         type="hueRotate"
         values="330"
         result="color1"
         id="feColorMatrix11255" />
      <feColorMatrix
         type="saturate"
         values="0"
         result="color2"
         id="feColorMatrix11257" />
    </filter>
  </defs>
  <g
     inkscape:label="Layer 1"
     inkscape:groupmode="layer"
     id="layer1"
     transform="translate(-103.67692,-140.99999)">
    <g
       id="g7665"
       transform="translate(0,36.517525)">
      <path
         class="cls-1"
         d="m 116.11284,104.72237 a 0.54245156,0.54245156 0 0 0 -0.90046,0 c -1.00897,1.48632 -3.48798,1.89315 -5.1099,1.52972 l -0.68349,-0.15189 a 0.66179091,0.66179091 0 0 0 -0.80825,0.65093 v 1.31274 a 12.476387,12.476387 0 0 0 5.37569,10.25775 l 1.67618,1.16086 1.4375,-0.99269 a 13.018837,13.018837 0 0 0 5.61438,-10.71885 v -1.01981 a 0.66179091,0.66179091 0 0 0 -0.80827,-0.64552 l -0.68348,0.15189 c -1.62193,0.35802 -4.10093,-0.0488 -5.1099,-1.53513 z"
         id="path945"
         style="fill:url(#%D0%91%D0%B5%D0%B7%D1%8B%D0%BC%D1%8F%D0%BD%D0%BD%D1%8B%D0%B9_%D0%B3%D1%80%D0%B0%D0%B4%D0%B8%D0%B5%D0%BD%D1%82_115);stroke-width:0.542452;filter:url(#filter11259)" />
      <path
         d="m 115.14085,108.39507 -0.0157,0.0417 c -0.0786,-0.0286 -0.16163,-0.0427 -0.24522,-0.0417 h -0.63916 c -0.003,-0.008 -0.003,-0.0131 -0.005,-0.0209 -0.33697,-1.44857 -1.52212,-2.54589 -2.99229,-2.77055 -1.46574,-0.24968 -2.97084,0.0877 -4.18974,0.93917 v 0.0261 l -0.12784,-0.51132 -0.0313,-0.12522 c -0.0604,-0.24293 0.06,-0.49455 0.28697,-0.60003 0.79568,-0.36262 2.71576,-1.08787 4.82889,-0.77221 1.76877,0.26349 3.13057,1.7479 3.13057,3.83495 z"
         fill="#bdc3c7"
         id="Shape"
         style="fill-rule:nonzero;stroke:none;stroke-width:0.26088;filter:url(#filter11253)" />
      <path
         d="m 107.05356,106.5689 v 0.60525 c -0.20222,0.21283 -0.39045,0.43853 -0.56351,0.67568 l -0.005,0.0235 h -1.78442 c 0.18783,-0.72002 0.89221,-1.40614 1.86268,-1.7192 0.11918,-0.0382 0.24021,-0.0704 0.36262,-0.0965 z"
         fill="#95a5a5"
         id="path831"
         style="fill-rule:nonzero;stroke:none;stroke-width:0.26088;filter:url(#filter11247)" />
      <path
         d="m 113.82862,116.35192 c 0,0 1.83399,1.04352 1.83399,3.13056 h -8.60905 c 0.26088,-0.52176 1.56267,-1.56528 1.56267,-1.56528 z"
         fill="#4482c3"
         id="path833"
         style="fill-rule:nonzero;stroke:none;stroke-width:0.26088;filter:url(#filter11241)" />
      <path
         d="m 114.35821,109.28989 c -0.0112,0.439 -0.0787,0.87475 -0.20088,1.29657 -0.0258,0.0922 -0.0572,0.18285 -0.0939,0.27132 -0.15708,0.36847 -0.35297,0.71916 -0.58437,1.04613 -0.003,0.003 -0.005,0.007 -0.005,0.0104 -0.0991,0.15392 -0.20088,0.30262 -0.29479,0.45654 -0.41505,0.66454 -0.57538,1.45691 -0.45133,2.23053 0.0438,0.34784 0.15734,0.68326 0.33393,0.98613 0.19566,0.32088 0.50609,0.49567 0.76697,0.76177 v 0.003 c -0.0678,0.0783 -1.40614,1.56528 -5.21239,1.56528 0,-0.947 -1.04352,-2.86968 -1.50528,-3.22187 l -0.0313,0.008 c -0.33655,0.12046 -0.70762,0.0988 -1.02787,-0.06 -0.33248,-0.16563 -0.54263,-0.50511 -0.54263,-0.87656 v -1.32788 l 0.27131,-1.3044 0.67568,-3.24796 0.0287,-0.14349 0.005,-0.0235 c 0.17306,-0.23715 0.36129,-0.46285 0.56352,-0.67568 v -0.63134 c 1.2189,-0.85146 2.724,-1.18884 4.18974,-0.93916 1.47017,0.22465 2.65532,1.32198 2.99229,2.77055 0.003,0.008 0.003,0.013 0.005,0.0209 0.0157,0.0574 0.0313,0.11739 0.0417,0.17479 0.0568,0.27979 0.0821,0.56504 0.0757,0.85047 z"
         fill="#fdd7ad"
         id="path835"
         style="fill-rule:nonzero;stroke:none;stroke-width:0.26088;filter:url(#filter11235)" />
      <path
         d="m 115.66261,109.04727 v 2.08704 c 2.9e-4,0.20765 -0.0821,0.40688 -0.22893,0.55372 -0.14683,0.14683 -0.34606,0.2292 -0.55371,0.22892 h -1.40093 l -0.005,-0.003 c 6.5e-4,-0.004 0.002,-0.008 0.005,-0.0104 0.2314,-0.32697 0.42729,-0.67766 0.58437,-1.04613 0.0367,-0.0885 0.0681,-0.17907 0.0939,-0.27132 0.12216,-0.42182 0.18967,-0.85757 0.20088,-1.29657 0.006,-0.28543 -0.0189,-0.57068 -0.0757,-0.85047 -0.0104,-0.0574 -0.0261,-0.1174 -0.0417,-0.17479 h 0.63916 c 0.0836,-10e-4 0.16667,0.0131 0.24522,0.0417 0.321,0.10409 0.53814,0.40344 0.53742,0.7409 z"
         fill="#7f8c8d"
         id="path839"
         style="fill-rule:nonzero;stroke:none;stroke-width:0.26088;filter:url(#filter11229)" />
      <path
         d="m 108.61884,109.56903 v 1.04352 c 3.6e-4,0.48444 -0.19193,0.94913 -0.53448,1.29168 -0.34255,0.34255 -0.80725,0.53484 -1.29168,0.53448 h -1.01222 v -4.69585 h 1.01222 c 0.48443,-3.6e-4 0.94913,0.19193 1.29168,0.53448 0.34255,0.34255 0.53483,0.80725 0.53448,1.29169 z"
         fill="#7f8c8d"
         id="path841"
         style="fill-rule:nonzero;stroke:none;stroke-width:0.26088;filter:url(#filter11223)" />
      <rect
         fill="#95a5a5"
         height="1.5652822"
         id="Rectangle-path"
         width="7.0437698"
         x="108.61884"
         y="109.30814"
         style="fill-rule:nonzero;stroke:none;stroke-width:0.26088;filter:url(#filter11217)" />
      <path
         d="m 107.57531,109.56903 v 1.04352 c 0.001,0.84567 -0.58023,1.58075 -1.40353,1.77399 -0.0548,0.013 -0.10957,0.0235 -0.16436,0.0313 -0.0751,0.0124 -0.15091,0.0193 -0.22696,0.0209 h -1.06002 v -4.69585 h 1.06002 c 0.076,0.002 0.1519,0.009 0.22696,0.0209 0.0548,0.008 0.10957,0.0183 0.16436,0.0313 0.0969,0.0233 0.19197,0.0539 0.28436,0.0913 0.67865,0.28338 1.12019,0.94722 1.11917,1.68267 z"
         fill="#bdc3c7"
         id="path844"
         sodipodi:nodetypes="cccccccccccc"
         style="fill-rule:nonzero;stroke:none;stroke-width:0.26088;filter:url(#filter11211)" />
      <path
         d="m 104.72044,107.74286 v 4.69585 h -0.52176 c -0.2878,-8.3e-4 -0.52091,-0.23395 -0.52176,-0.52176 v -3.65232 c 8.4e-4,-0.28782 0.23395,-0.52092 0.52176,-0.52177 z"
         fill="#5e5f62"
         id="path846"
         sodipodi:nodetypes="ccccccc"
         style="fill-rule:nonzero;stroke:none;stroke-width:0.26088;filter:url(#filter11205)" />
    </g>
  </g>
</svg>
