<?xml version="1.0" encoding="UTF-8" standalone="no"?>
<!-- Created with Inkscape (http://www.inkscape.org/) -->

<svg
   width="98.914963mm"
   height="15.00001mm"
   viewBox="0 0 98.914963 15.00001"
   version="1.1"
   id="svg5"
   xmlns="http://www.w3.org/2000/svg"
   xmlns:svg="http://www.w3.org/2000/svg">
  <defs
     id="defs2">
    <style
       id="style929">.cls-1{fill:url(#Безымянный_градиент_115);}.cls-2{fill:url(#Безымянный_градиент_39);}</style>
    <linearGradient
       gradientUnits="userSpaceOnUse"
       id="Безымянный_градиент_115"
       x1="24.469999"
       x2="6.7199998"
       y1="20.719999"
       y2="2.97"
       gradientTransform="matrix(0.54245159,0,0,0.54245159,106.98339,103.20894)">
      <stop
         offset="0"
         stop-color="#0179ee"
         id="stop931" />
      <stop
         offset="1"
         stop-color="#00cdfb"
         id="stop933" />
    </linearGradient>
    <linearGradient
       gradientUnits="userSpaceOnUse"
       id="Безымянный_градиент_39"
       x1="23.26"
       x2="9"
       y1="19.620001"
       y2="5.3600001"
       gradientTransform="matrix(0.62743155,0,0,0.62743155,115.93283,100.88379)">
      <stop
         offset="0"
         stop-color="#7fbbf6"
         id="stop936" />
      <stop
         offset="1"
         stop-color="#d0fdff"
         id="stop938" />
    </linearGradient>
  </defs>
  <g
     id="layer1"
     transform="translate(-103.67692,-140.99999)">
    <g
       id="g7665"
       transform="translate(0,36.517525)">
      <path
         class="cls-1"
         d="m 116.11284,104.72237 a 0.54245156,0.54245156 0 0 0 -0.90046,0 c -1.00897,1.48632 -3.48798,1.89315 -5.1099,1.52972 l -0.68349,-0.15189 a 0.66179091,0.66179091 0 0 0 -0.80825,0.65093 v 1.31274 a 12.476387,12.476387 0 0 0 5.37569,10.25775 l 1.67618,1.16086 1.4375,-0.99269 a 13.018837,13.018837 0 0 0 5.61438,-10.71885 v -1.01981 a 0.66179091,0.66179091 0 0 0 -0.80827,-0.64552 l -0.68348,0.15189 c -1.62193,0.35802 -4.10093,-0.0488 -5.1099,-1.53513 z"
         id="path945"
         style="fill:url(#%D0%91%D0%B5%D0%B7%D1%8B%D0%BC%D1%8F%D0%BD%D0%BD%D1%8B%D0%B9_%D0%B3%D1%80%D0%B0%D0%B4%D0%B8%D0%B5%D0%BD%D1%82_115);stroke-width:0.542452" />
      <path
         d="m 115.14085,108.39507 -0.0157,0.0417 c -0.0786,-0.0286 -0.16163,-0.0427 -0.24522,-0.0417 h -0.63916 c -0.003,-0.008 -0.003,-0.0131 -0.005,-0.0209 -0.33697,-1.44857 -1.52212,-2.54589 -2.99229,-2.77055 -1.46574,-0.24968 -2.97084,0.0877 -4.18974,0.93917 v 0.0261 l -0.12784,-0.51132 -0.0313,-0.12522 c -0.0604,-0.24293 0.06,-0.49455 0.28697,-0.60003 0.79568,-0.36262 2.71576,-1.08787 4.82889,-0.77221 1.76877,0.26349 3.13057,1.7479 3.13057,3.83495 z"
         fill="#bdc3c7"
         id="Shape"
         style="fill-rule:nonzero;stroke:none;stroke-width:0.26088" />
      <path
         d="m 107.05356,106.5689 v 0.60525 c -0.20222,0.21283 -0.39045,0.43853 -0.56351,0.67568 l -0.005,0.0235 h -1.78442 c 0.18783,-0.72002 0.89221,-1.40614 1.86268,-1.7192 0.11918,-0.0382 0.24021,-0.0704 0.36262,-0.0965 z"
         fill="#95a5a5"
         id="path831"
         style="fill-rule:nonzero;stroke:none;stroke-width:0.26088" />
      <path
         d="m 113.82862,116.35192 c 0,0 1.83399,1.04352 1.83399,3.13056 h -8.60905 c 0.26088,-0.52176 1.56267,-1.56528 1.56267,-1.56528 z"
         fill="#4482c3"
         id="path833"
         style="fill-rule:nonzero;stroke:none;stroke-width:0.26088" />
      <path
         d="m 114.35821,109.28989 c -0.0112,0.439 -0.0787,0.87475 -0.20088,1.29657 -0.0258,0.0922 -0.0572,0.18285 -0.0939,0.27132 -0.15708,0.36847 -0.35297,0.71916 -0.58437,1.04613 -0.003,0.003 -0.005,0.007 -0.005,0.0104 -0.0991,0.15392 -0.20088,0.30262 -0.29479,0.45654 -0.41505,0.66454 -0.57538,1.45691 -0.45133,2.23053 0.0438,0.34784 0.15734,0.68326 0.33393,0.98613 0.19566,0.32088 0.50609,0.49567 0.76697,0.76177 v 0.003 c -0.0678,0.0783 -1.40614,1.56528 -5.21239,1.56528 0,-0.947 -1.04352,-2.86968 -1.50528,-3.22187 l -0.0313,0.008 c -0.33655,0.12046 -0.70762,0.0988 -1.02787,-0.06 -0.33248,-0.16563 -0.54263,-0.50511 -0.54263,-0.87656 v -1.32788 l 0.27131,-1.3044 0.67568,-3.24796 0.0287,-0.14349 0.005,-0.0235 c 0.17306,-0.23715 0.36129,-0.46285 0.56352,-0.67568 v -0.63134 c 1.2189,-0.85146 2.724,-1.18884 4.18974,-0.93916 1.47017,0.22465 2.65532,1.32198 2.99229,2.77055 0.003,0.008 0.003,0.013 0.005,0.0209 0.0157,0.0574 0.0313,0.11739 0.0417,0.17479 0.0568,0.27979 0.0821,0.56504 0.0757,0.85047 z"
         fill="#fdd7ad"
         id="path835"
         style="fill-rule:nonzero;stroke:none;stroke-width:0.26088" />
      <path
         d="m 115.66261,109.04727 v 2.08704 c 2.9e-4,0.20765 -0.0821,0.40688 -0.22893,0.55372 -0.14683,0.14683 -0.34606,0.2292 -0.55371,0.22892 h -1.40093 l -0.005,-0.003 c 6.5e-4,-0.004 0.002,-0.008 0.005,-0.0104 0.2314,-0.32697 0.42729,-0.67766 0.58437,-1.04613 0.0367,-0.0885 0.0681,-0.17907 0.0939,-0.27132 0.12216,-0.42182 0.18967,-0.85757 0.20088,-1.29657 0.006,-0.28543 -0.0189,-0.57068 -0.0757,-0.85047 -0.0104,-0.0574 -0.0261,-0.1174 -0.0417,-0.17479 h 0.63916 c 0.0836,-10e-4 0.16667,0.0131 0.24522,0.0417 0.321,0.10409 0.53814,0.40344 0.53742,0.7409 z"
         fill="#7f8c8d"
         id="path839"
         style="fill-rule:nonzero;stroke:none;stroke-width:0.26088" />
      <path
         d="m 108.61884,109.56903 v 1.04352 c 3.6e-4,0.48444 -0.19193,0.94913 -0.53448,1.29168 -0.34255,0.34255 -0.80725,0.53484 -1.29168,0.53448 h -1.01222 v -4.69585 h 1.01222 c 0.48443,-3.6e-4 0.94913,0.19193 1.29168,0.53448 0.34255,0.34255 0.53483,0.80725 0.53448,1.29169 z"
         fill="#7f8c8d"
         id="path841"
         style="fill-rule:nonzero;stroke:none;stroke-width:0.26088" />
      <rect
         fill="#95a5a5"
         height="1.5652822"
         id="Rectangle-path"
         width="7.0437698"
         x="108.61884"
         y="109.30814"
         style="fill-rule:nonzero;stroke:none;stroke-width:0.26088" />
      <path
         d="m 107.57531,109.56903 v 1.04352 c 0.001,0.84567 -0.58023,1.58075 -1.40353,1.77399 -0.0548,0.013 -0.10957,0.0235 -0.16436,0.0313 -0.0751,0.0124 -0.15091,0.0193 -0.22696,0.0209 h -1.06002 v -4.69585 h 1.06002 c 0.076,0.002 0.1519,0.009 0.22696,0.0209 0.0548,0.008 0.10957,0.0183 0.16436,0.0313 0.0969,0.0233 0.19197,0.0539 0.28436,0.0913 0.67865,0.28338 1.12019,0.94722 1.11917,1.68267 z"
         fill="#bdc3c7"
         id="path844"
         style="fill-rule:nonzero;stroke:none;stroke-width:0.26088" />
      <path
         d="m 104.72044,107.74286 v 4.69585 h -0.52176 c -0.2878,-8.3e-4 -0.52091,-0.23395 -0.52176,-0.52176 v -3.65232 c 8.4e-4,-0.28782 0.23395,-0.52092 0.52176,-0.52177 z"
         fill="#5e5f62"
         id="path846"
         style="fill-rule:nonzero;stroke:none;stroke-width:0.26088" />
    </g>
    <g
       aria-label="MetaGuard"
       id="text2734"
       style="font-size:14.0845px;line-height:1.25;font-family:FoundryContextW03-Bd;-inkscape-font-specification:FoundryContextW03-Bd;stroke-width:0.35211">
      <path
         d="m 138.33847,153.27464 v -7.36619 l -2.50704,7.36619 h -1.85916 l -2.50704,-7.36619 v 7.36619 h -1.9014 v -9.54929 h 2.97183 l 2.39436,6.98591 2.40845,-6.98591 h 2.92958 v 9.54929 z"
         id="path842" />
      <path
         d="m 143.71873,150.47183 q 0,0.22535 0.0845,0.49295 0.0845,0.26761 0.28169,0.49296 0.21127,0.22535 0.53521,0.38028 0.33803,0.14085 0.83099,0.14085 0.43661,0 0.77464,-0.0986 0.33803,-0.11268 0.57747,-0.25352 0.25352,-0.14085 0.40845,-0.28169 0.15493,-0.14085 0.21127,-0.19719 l 1.05633,1.01409 q -0.49295,0.54929 -1.25352,0.94366 -0.74648,0.38028 -1.84507,0.38028 -0.97183,0 -1.67605,-0.29577 -0.69014,-0.30986 -1.14085,-0.80282 -0.43662,-0.50704 -0.64788,-1.15493 -0.21127,-0.64789 -0.21127,-1.33803 0,-0.67605 0.21127,-1.32394 0.21126,-0.64789 0.64788,-1.16901 0.45071,-0.52113 1.14085,-0.83099 0.69014,-0.32394 1.6338,-0.32394 0.22535,0 0.50704,0.0282 0.29578,0.0282 0.59155,0.12676 0.30986,0.0845 0.61972,0.2676 0.30986,0.16902 0.59155,0.45071 0.35211,0.35211 0.54929,0.74647 0.21127,0.38029 0.30986,0.80282 0.11268,0.42254 0.14085,0.88732 0.0282,0.45071 0.0282,0.9155 z m 3.04225,-1.32395 q 0,-0.11267 -0.0563,-0.35211 -0.0563,-0.25352 -0.21127,-0.49296 -0.15493,-0.25352 -0.45071,-0.43662 -0.29577,-0.18309 -0.77464,-0.18309 -0.46479,0 -0.77465,0.19718 -0.29578,0.1831 -0.46479,0.43662 -0.16901,0.23944 -0.23944,0.49296 -0.0563,0.23943 -0.0563,0.33802 z"
         id="path845" />
      <path
         d="m 155.15534,153.06338 q -0.0422,0.0282 -0.19718,0.0986 -0.14085,0.0563 -0.38029,0.12676 -0.23943,0.0845 -0.57746,0.14084 -0.33803,0.0563 -0.76056,0.0563 -0.59155,0 -1.09859,-0.12676 -0.50705,-0.11268 -0.87324,-0.40845 -0.45071,-0.35211 -0.63381,-0.84507 -0.18309,-0.49296 -0.18309,-1.25352 v -2.77465 h -1.45071 V 146.5 h 1.45071 v -2.05634 h 1.97183 V 146.5 h 2.36619 v 1.57746 h -2.36619 v 2.21127 q 0,0.30986 0.0282,0.61972 0.0282,0.29577 0.19719,0.53521 0.15493,0.19718 0.39436,0.29577 0.23944,0.0986 0.63381,0.0986 0.33802,0 0.61971,-0.0845 0.28169,-0.0845 0.33803,-0.11268 z"
         id="path847" />
      <path
         d="m 160.43702,153.27464 -0.0422,-0.73239 q -0.0845,0.0986 -0.26761,0.25352 -0.16901,0.15493 -0.4507,0.29577 -0.26761,0.14085 -0.63381,0.23944 -0.36619,0.11268 -0.83098,0.11268 -0.46479,0 -0.90141,-0.12676 -0.42254,-0.12676 -0.76056,-0.38029 -0.32395,-0.2676 -0.53521,-0.67605 -0.19719,-0.40845 -0.19719,-0.95775 0,-0.47887 0.15493,-0.8169 0.15493,-0.35211 0.39437,-0.59155 0.53521,-0.53521 1.19718,-0.69014 0.66197,-0.16901 1.33803,-0.16901 h 1.39436 v -0.14085 q 0,-0.64788 -0.38028,-0.88732 -0.38028,-0.25352 -0.97183,-0.25352 -0.38028,0 -0.71831,0.11267 -0.32394,0.11268 -0.57746,0.25353 -0.25352,0.14084 -0.42254,0.28169 -0.15493,0.12676 -0.19718,0.16901 l -0.92958,-1.14084 q 0.0563,-0.0704 0.26761,-0.25353 0.21127,-0.19718 0.57746,-0.39436 0.3662,-0.21127 0.88733,-0.3662 0.52112,-0.16901 1.22535,-0.16901 1.59155,0 2.36619,0.78873 0.26761,0.2676 0.42254,0.57746 0.15493,0.29578 0.22535,0.63381 0.0845,0.33802 0.0986,0.71831 0.0282,0.38028 0.0282,0.8169 v 3.49295 z m -0.14085,-2.98591 h -1.01408 q -0.25352,0 -0.53521,0.0282 -0.26761,0.0282 -0.50704,0.12676 -0.22536,0.0845 -0.38028,0.28169 -0.15493,0.1831 -0.15493,0.50704 0,0.40845 0.28169,0.61972 0.28169,0.21127 0.71831,0.21127 0.40845,0 0.69014,-0.0986 0.28169,-0.11267 0.47887,-0.29577 0.42253,-0.38028 0.42253,-1.02817 z"
         id="path849" />
      <path
         d="m 171.21165,153.27464 -0.0282,-0.98591 q -0.0282,0.0423 -0.23944,0.23943 -0.19718,0.19719 -0.57746,0.40845 -0.3662,0.21127 -0.92958,0.38029 -0.54929,0.18309 -1.28169,0.18309 -1.12676,0 -2.01408,-0.39436 -0.87324,-0.39437 -1.47887,-1.07042 -0.59155,-0.67606 -0.90141,-1.57747 -0.30986,-0.91549 -0.30986,-1.95774 0,-1.01409 0.32394,-1.91549 0.33803,-0.9155 0.97183,-1.59155 0.64789,-0.69014 1.59155,-1.08451 0.95775,-0.40845 2.1831,-0.40845 0.94366,0 1.6338,0.22535 0.70423,0.22535 1.16902,0.50704 0.46478,0.28169 0.71831,0.5493 0.25352,0.2676 0.32394,0.35211 l -1.25352,1.21127 q -0.0423,-0.0422 -0.22535,-0.21127 -0.16902,-0.1831 -0.49296,-0.38028 -0.30986,-0.19718 -0.77465,-0.35211 -0.4507,-0.15493 -1.04225,-0.15493 -0.74648,0 -1.30986,0.2676 -0.56338,0.26761 -0.94366,0.71831 -0.3662,0.43662 -0.5493,1.02817 -0.1831,0.59155 -0.1831,1.22535 0,0.67606 0.1831,1.28169 0.19719,0.59155 0.56338,1.04226 0.38028,0.43661 0.9155,0.69014 0.54929,0.25352 1.2676,0.25352 0.59155,0 1.05634,-0.16902 0.46479,-0.1831 0.78873,-0.47887 0.33803,-0.29577 0.50704,-0.67606 0.1831,-0.38028 0.1831,-0.78873 v -0.11267 h -2.70422 v -1.63381 h 4.4507 v 5.38028 z"
         id="path851" />
      <path
         d="m 179.0567,153.27464 -0.0563,-0.84507 q -0.0141,0.0282 -0.15493,0.19719 -0.14084,0.15493 -0.40845,0.35211 -0.2676,0.1831 -0.67605,0.33803 -0.40846,0.15493 -0.95775,0.15493 -1.16901,0 -1.8169,-0.64789 -0.49296,-0.49296 -0.60563,-1.09859 -0.11268,-0.60564 -0.11268,-1.32395 V 146.5 h 1.97183 v 3.8169 q 0,0.35211 0.0563,0.66197 0.0563,0.29577 0.2676,0.50704 0.33803,0.32394 0.9155,0.32394 0.25352,0 0.52112,-0.0845 0.28169,-0.0986 0.49296,-0.30986 0.23944,-0.23944 0.29577,-0.52113 0.0704,-0.29577 0.0986,-0.66197 0.0141,-0.15493 0.0141,-0.30986 0,-0.15493 0,-0.32394 V 146.5 h 1.97183 v 6.77464 z"
         id="path853" />
      <path
         d="m 186.76092,153.27464 -0.0423,-0.73239 q -0.0845,0.0986 -0.2676,0.25352 -0.16902,0.15493 -0.45071,0.29577 -0.2676,0.14085 -0.6338,0.23944 -0.3662,0.11268 -0.83099,0.11268 -0.46478,0 -0.9014,-0.12676 -0.42254,-0.12676 -0.76057,-0.38029 -0.32394,-0.2676 -0.53521,-0.67605 -0.19718,-0.40845 -0.19718,-0.95775 0,-0.47887 0.15493,-0.8169 0.15493,-0.35211 0.39436,-0.59155 0.53522,-0.53521 1.19719,-0.69014 0.66197,-0.16901 1.33802,-0.16901 h 1.39437 v -0.14085 q 0,-0.64788 -0.38028,-0.88732 -0.38028,-0.25352 -0.97183,-0.25352 -0.38028,0 -0.71831,0.11267 -0.32394,0.11268 -0.57747,0.25353 -0.25352,0.14084 -0.42253,0.28169 -0.15493,0.12676 -0.19718,0.16901 l -0.92958,-1.14084 q 0.0563,-0.0704 0.2676,-0.25353 0.21127,-0.19718 0.57747,-0.39436 0.3662,-0.21127 0.88732,-0.3662 0.52113,-0.16901 1.22535,-0.16901 1.59155,0 2.3662,0.78873 0.26761,0.2676 0.42254,0.57746 0.15492,0.29578 0.22535,0.63381 0.0845,0.33802 0.0986,0.71831 0.0282,0.38028 0.0282,0.8169 v 3.49295 z m -0.14085,-2.98591 h -1.01408 q -0.25352,0 -0.53521,0.0282 -0.26761,0.0282 -0.50705,0.12676 -0.22535,0.0845 -0.38028,0.28169 -0.15493,0.1831 -0.15493,0.50704 0,0.40845 0.28169,0.61972 0.28169,0.21127 0.71831,0.21127 0.40845,0 0.69014,-0.0986 0.28169,-0.11267 0.47888,-0.29577 0.42253,-0.38028 0.42253,-1.02817 z"
         id="path855" />
      <path
         d="m 194.62006,148.16197 q -0.0845,-0.0141 -0.19719,-0.0141 -0.11267,-0.0141 -0.2676,-0.0141 -0.35211,0 -0.74648,0.0986 -0.39437,0.0845 -0.70423,0.35211 -0.49295,0.43662 -0.60563,0.94367 -0.0986,0.49295 -0.0986,1.01408 v 2.73239 H 190.0285 V 146.5 h 1.85915 l 0.0282,1.16901 q 0.1831,-0.29577 0.45071,-0.54929 0.2676,-0.26761 0.59155,-0.45071 0.32394,-0.19718 0.67605,-0.30986 0.35211,-0.11267 0.71831,-0.11267 0.0704,0 0.12676,0 0.0704,0 0.14085,0.0141 z"
         id="path857" />
      <path
         d="m 200.7609,153.27464 -0.0423,-0.85915 q -0.0282,0.0282 -0.1831,0.19718 -0.14084,0.16902 -0.43662,0.3662 -0.29577,0.1831 -0.74647,0.33803 -0.45071,0.15493 -1.05634,0.15493 -0.52113,0 -1.08451,-0.1831 -0.54929,-0.1831 -1.01408,-0.60564 -0.46479,-0.42253 -0.77465,-1.11267 -0.29577,-0.70423 -0.29577,-1.7324 0,-0.64788 0.19718,-1.28168 0.21127,-0.64789 0.61972,-1.15493 0.42253,-0.52113 1.04225,-0.83099 0.6338,-0.32394 1.46479,-0.32394 0.50704,0 0.88732,0.12676 0.38028,0.11267 0.64789,0.28169 0.2676,0.15493 0.42253,0.30986 0.15493,0.15493 0.21127,0.22535 v -3.46479 h 1.97183 v 9.54929 z m -0.0986,-3.42253 q 0,-0.88732 -0.47887,-1.4507 -0.47887,-0.56338 -1.28169,-0.56338 -0.40845,0 -0.73239,0.15493 -0.32395,0.15492 -0.5493,0.43661 -0.22535,0.26761 -0.35211,0.63381 -0.11268,0.36619 -0.11268,0.78873 0,0.92958 0.46479,1.49296 0.46479,0.56338 1.26761,0.56338 0.80281,0 1.28169,-0.56338 0.49295,-0.56338 0.49295,-1.49296 z"
         id="path859" />
    </g>
  </g>
</svg>
